HIERARCHY
ROOT joint_Root
{
	OFFSET 0.0 0.0 0.0
	CHANNELS 6 Xposition Yposition Zposition Zrotation Xrotation Yrotation 
	JOINT Hips
	{
		OFFSET -0.726466 93.3139 -2.00062
		CHANNELS 6 Xposition Yposition Zposition Zrotation Xrotation Yrotation 
		JOINT Spine
		{
			OFFSET 15.7357 0.0 0.0
			CHANNELS 6 Xposition Yposition Zposition Zrotation Xrotation Yrotation 
			JOINT Chest
			{
				OFFSET 8.98455 -0.406207 0.0
				CHANNELS 6 Xposition Yposition Zposition Zrotation Xrotation Yrotation 
				JOINT Neck
				{
					OFFSET 16.3773 0.0 0.0
					CHANNELS 6 Xposition Yposition Zposition Zrotation Xrotation Yrotation 
					JOINT Head
					{
						OFFSET 6.45672 0.0 0.0
						CHANNELS 6 Xposition Yposition Zposition Zrotation Xrotation Yrotation 
						End Site
						{
							OFFSET 0.0 0.0 0.0
						}
					}
				}
				JOINT Shoulder_L
				{
					OFFSET 12.9942 -0.242716 4.98039
					CHANNELS 6 Xposition Yposition Zposition Zrotation Xrotation Yrotation 
					JOINT UpperArm_L
					{
						OFFSET 5.34809 0.0 0.0
						CHANNELS 6 Xposition Yposition Zposition Zrotation Xrotation Yrotation 
						JOINT LowerArm_L
						{
							OFFSET 24.3286 1.87007e-05 0.0
							CHANNELS 6 Xposition Yposition Zposition Zrotation Xrotation Yrotation 
							JOINT Hand_L
							{
								OFFSET 22.2916 0.0 0.0
								CHANNELS 6 Xposition Yposition Zposition Zrotation Xrotation Yrotation 
								End Site
								{
									OFFSET 0.0 0.0 0.0
								}
							}
						}
					}
				}
				JOINT Shoulder_R
				{
					OFFSET 12.9945 -0.242716 -4.98039
					CHANNELS 6 Xposition Yposition Zposition Zrotation Xrotation Yrotation 
					JOINT UpperArm_R
					{
						OFFSET -5.34813 0.0 0.0
						CHANNELS 6 Xposition Yposition Zposition Zrotation Xrotation Yrotation 
						JOINT LowerArm_R
						{
							OFFSET -24.3289 0.000322201 0.0
							CHANNELS 6 Xposition Yposition Zposition Zrotation Xrotation Yrotation 
							JOINT Hand_R
							{
								OFFSET -22.2915 -0.000108084 0.0
								CHANNELS 6 Xposition Yposition Zposition Zrotation Xrotation Yrotation 
								End Site
								{
									OFFSET 0.0 0.0 0.0
								}
							}
						}
					}
				}
			}
		}
		JOINT UpperLeg_L
		{
			OFFSET -2.19248 -6.46944 0.0
			CHANNELS 6 Xposition Yposition Zposition Zrotation Xrotation Yrotation 
			JOINT LowerLeg_L
			{
				OFFSET 39.0811 0.0 -1.23785e-05
				CHANNELS 6 Xposition Yposition Zposition Zrotation Xrotation Yrotation 
				JOINT Foot_L
				{
					OFFSET 40.9854 0.0 -1.26872e-05
					CHANNELS 6 Xposition Yposition Zposition Zrotation Xrotation Yrotation 
					JOINT Toes_L
					{
						OFFSET 11.7543 0.0 0.0
						CHANNELS 6 Xposition Yposition Zposition Zrotation Xrotation Yrotation 
						End Site
						{
							OFFSET 0.0 0.0 0.0
						}
					}
				}
			}
		}
		JOINT UpperLeg_R
		{
			OFFSET -2.19251 6.46944 0.0
			CHANNELS 6 Xposition Yposition Zposition Zrotation Xrotation Yrotation 
			JOINT LowerLeg_R
			{
				OFFSET -39.0811 -0.00228153 -0.0401928
				CHANNELS 6 Xposition Yposition Zposition Zrotation Xrotation Yrotation 
				JOINT Foot_R
				{
					OFFSET -40.9854 0.0 0.0
					CHANNELS 6 Xposition Yposition Zposition Zrotation Xrotation Yrotation 
					JOINT Toes_R
					{
						OFFSET -11.7543 0.0 0.0
						CHANNELS 6 Xposition Yposition Zposition Zrotation Xrotation Yrotation 
						End Site
						{
							OFFSET 0.0 0.0 0.0
						}
					}
				}
			}
		}
	}
}
MOTION
Frames:	6
Frame Time:	0.0333333
0.000000 0.000000 0.000000 0.000000 0.000000 -0.000000 -2.697050 92.185700 -3.470410 87.536300 -1.671070 2.520900 15.735700 0.000005 -0.000001 63.809700 85.869700 -60.610300 8.984550 -0.406207 -0.000000 -0.236468 -3.868210 6.389040 16.377300 -0.000001 -0.000001 0.031318 0.355958 0.017491 6.456720 -0.000001 -0.000000 -2.752330 1.624220 19.606000 12.994200 -0.242716 4.980390 -85.340600 -9.866740 -64.563200 5.348090 -0.000007 -0.000001 -67.011700 -51.639500 -101.541000 24.328600 0.000019 0.000005 6.049250 3.409730 -60.697200 22.291600 -0.000001 0.000005 16.520200 5.610750 -12.007200 12.994500 -0.242716 -4.980390 89.440000 1.505500 -69.593500 -5.348130 -0.000001 -0.000004 -45.860100 79.085600 2.214740 -24.328900 0.000322 -0.000009 22.989800 0.130434 -89.693300 -22.291500 -0.000108 -0.000004 35.213000 5.646330 -14.674500 -2.192480 -6.469440 -0.000000 -167.292000 -15.910200 -3.426790 39.081100 -0.000007 -0.000012 -0.142931 0.418789 18.844800 40.985400 -0.000006 -0.000013 -7.805650 2.977730 -60.468100 11.754300 -0.000000 0.000003 -0.000075 -0.000809 -16.608700 -2.192510 6.469440 -0.000001 176.381000 19.170800 176.559000 -39.081100 -0.002282 -0.040193 -0.076929 0.224045 19.707000 -40.985400 0.000008 0.000006 -3.544450 2.620470 -62.241500 -11.754300 -0.000006 -0.000006 -0.006028 -0.071094 -19.466500
0.000000 0.000000 0.000000 0.000000 0.000000 -0.000000 -2.673250 92.183100 -3.484630 87.512800 -1.656490 2.499960 15.735700 0.000005 -0.000001 63.662200 85.858500 -60.454500 8.984550 -0.406207 -0.000000 -0.224567 -3.897490 6.406010 16.377300 -0.000001 -0.000001 0.054101 0.345243 0.009550 6.456720 -0.000001 -0.000000 -2.730560 1.633460 19.563600 12.994200 -0.242716 4.980390 -85.332900 -9.884610 -64.566100 5.348090 -0.000007 -0.000001 -67.185200 -51.671400 -101.633000 24.328600 0.000019 0.000005 6.050110 3.412050 -60.684100 22.291600 -0.000001 0.000005 16.522700 5.609470 -11.925300 12.994500 -0.242716 -4.980390 89.425900 1.541710 -69.573700 -5.348130 -0.000001 -0.000004 -45.526900 79.081800 1.919210 -24.328900 0.000322 -0.000009 22.922800 0.137170 -89.676300 -22.291500 -0.000108 -0.000004 35.140800 5.647730 -14.802200 -2.192480 -6.469440 -0.000000 -167.301000 -15.966600 -3.526770 39.081100 -0.000007 -0.000012 -0.142897 0.416088 18.954100 40.985400 -0.000006 -0.000013 -7.766880 3.018950 -60.499000 11.754300 -0.000000 0.000003 -0.000073 -0.000788 -16.608000 -2.192510 6.469440 -0.000001 176.392000 19.191600 176.532000 -39.081100 -0.002282 -0.040193 -0.079193 0.230476 19.698400 -40.985400 0.000008 0.000006 -3.557600 2.634480 -62.220900 -11.754300 -0.000006 -0.000006 -0.006091 -0.071663 -19.489700
0.000000 0.000000 0.000000 0.000000 0.000000 -0.000000 -2.627520 92.181100 -3.480770 87.559700 -1.708560 2.533020 15.735700 0.000005 -0.000001 63.844900 85.845100 -60.650400 8.984550 -0.406207 -0.000000 -0.189641 -3.883720 6.380920 16.377300 -0.000001 -0.000001 0.109853 0.352045 -0.035003 6.456720 -0.000001 -0.000000 -2.732340 1.641640 19.555900 12.994200 -0.242716 4.980390 -85.339500 -9.872050 -64.569700 5.348090 -0.000007 -0.000001 -67.247000 -51.702900 -101.637000 24.328600 0.000019 0.000005 6.031210 3.402020 -60.678900 22.291600 -0.000001 0.000005 16.456100 5.609920 -11.953700 12.994500 -0.242716 -4.980390 89.424900 1.544620 -69.574600 -5.348130 -0.000001 -0.000004 -45.388400 79.059500 1.764900 -24.328900 0.000322 -0.000009 22.772600 0.150798 -89.641500 -22.291500 -0.000108 -0.000004 35.177800 5.649700 -14.986900 -2.192480 -6.469440 -0.000000 -167.369000 -16.002800 -3.488420 39.081100 -0.000007 -0.000012 -0.142789 0.415035 18.985500 40.985400 -0.000006 -0.000013 -7.734370 3.003100 -60.535900 11.754300 -0.000000 0.000003 -0.000078 -0.000830 -16.609600 -2.192510 6.469440 -0.000001 176.305000 19.189000 176.539000 -39.081100 -0.002282 -0.040193 -0.077102 0.224126 19.739700 -40.985400 0.000008 0.000006 -3.578690 2.673310 -62.223600 -11.754300 -0.000006 -0.000006 -0.006237 -0.072972 -19.543100
0.000000 0.000000 0.000000 0.000000 0.000000 -0.000000 -2.612730 92.178000 -3.445620 87.569800 -1.634070 2.573610 15.735700 0.000005 -0.000001 63.514900 85.817100 -60.322000 8.984550 -0.406207 -0.000000 -0.158826 -3.950620 6.378640 16.377300 -0.000001 -0.000001 0.144844 0.353618 -0.079199 6.456720 -0.000001 -0.000000 -2.709310 1.685250 19.534600 12.994200 -0.242716 4.980390 -85.346300 -9.842430 -64.535900 5.348090 -0.000007 -0.000001 -67.305700 -51.674100 -101.650000 24.328600 0.000019 0.000005 6.175450 3.476860 -60.729800 22.291600 -0.000001 0.000005 16.490600 5.609260 -11.912100 12.994500 -0.242716 -4.980390 89.419400 1.559860 -69.582100 -5.348130 -0.000001 -0.000004 -45.411400 79.030000 1.781350 -24.328900 0.000322 -0.000009 22.910800 0.162896 -89.615300 -22.291500 -0.000108 -0.000004 35.140000 5.649020 -14.922700 -2.192480 -6.469440 -0.000000 -167.381000 -16.004900 -3.466780 39.081100 -0.000007 -0.000012 -0.141383 0.410021 19.025300 40.985400 -0.000006 -0.000013 -7.707730 3.080290 -60.562600 11.754300 -0.000000 0.000003 -0.000080 -0.000848 -16.610200 -2.192510 6.469440 -0.000001 176.229000 19.312600 176.627000 -39.081100 -0.002282 -0.040193 -0.081058 0.235288 19.729000 -40.985400 0.000008 0.000006 -3.596590 2.767160 -62.236300 -11.754300 -0.000006 -0.000006 -0.006070 -0.071471 -19.481900
0.000000 0.000000 0.000000 0.000000 0.000000 -0.000000 -2.564260 92.185500 -3.439470 87.611500 -1.657550 2.575360 15.735700 0.000005 -0.000001 63.824500 85.831200 -60.644900 8.984550 -0.406207 -0.000000 -0.166226 -3.896920 6.351710 16.377300 -0.000001 -0.000001 0.169759 0.380089 -0.091875 6.456720 -0.000001 -0.000000 -2.648950 1.707830 19.468200 12.994200 -0.242716 4.980390 -85.345200 -9.839780 -64.524800 5.348090 -0.000007 -0.000001 -67.268700 -51.594000 -101.588000 24.328600 0.000019 0.000005 6.106070 3.436710 -60.735100 22.291600 -0.000001 0.000005 16.535100 5.610560 -11.994700 12.994500 -0.242716 -4.980390 89.409500 1.582120 -69.530400 -5.348130 -0.000001 -0.000004 -45.423800 78.988200 1.808410 -24.328900 0.000322 -0.000009 22.808400 0.157799 -89.625500 -22.291500 -0.000108 -0.000004 35.055900 5.650110 -15.025600 -2.192480 -6.469440 -0.000000 -167.448000 -16.048700 -3.424060 39.081100 -0.000007 -0.000012 -0.141788 0.412472 18.970600 40.985400 -0.000006 -0.000013 -7.678020 3.083240 -60.550700 11.754300 -0.000000 0.000003 -0.000079 -0.000836 -16.609800 -2.192510 6.469440 -0.000001 176.164000 19.290600 176.646000 -39.081100 -0.002282 -0.040193 -0.078245 0.227968 19.687100 -40.985400 0.000008 0.000006 -3.626800 2.750150 -62.204200 -11.754300 -0.000006 -0.000006 -0.006027 -0.071083 -19.466100
0.000000 0.000000 0.000000 0.000000 0.000000 -0.000000 -2.550230 92.175400 -3.407360 87.603000 -1.590990 2.588820 15.735700 0.000005 -0.000001 63.503600 85.823200 -60.319600 8.984550 -0.406207 -0.000000 -0.171060 -3.946340 6.360330 16.377300 -0.000001 -0.000001 0.216423 0.428755 -0.104266 6.456720 -0.000001 -0.000000 -2.622670 1.801740 19.430600 12.994200 -0.242716 4.980390 -85.348200 -9.829430 -64.516100 5.348090 -0.000007 -0.000001 -67.114600 -51.639100 -101.376000 24.328600 0.000019 0.000005 6.117830 3.428890 -60.837900 22.291600 -0.000001 0.000005 16.477200 5.609650 -11.936500 12.994500 -0.242716 -4.980390 89.404900 1.594360 -69.528800 -5.348130 -0.000001 -0.000004 -45.408300 78.975700 1.795300 -24.328900 0.000322 -0.000009 22.925800 0.162845 -89.615700 -22.291500 -0.000108 -0.000004 35.070100 5.648920 -14.912900 -2.192480 -6.469440 -0.000000 -167.445000 -15.974500 -3.451280 39.081100 -0.000007 -0.000012 -0.142364 0.411934 19.065300 40.985400 -0.000006 -0.000013 -7.669270 3.110650 -60.620700 11.754300 -0.000000 0.000003 -0.000087 -0.000910 -16.612600 -2.192510 6.469440 -0.000001 176.157000 19.381100 176.663000 -39.081100 -0.002282 -0.040193 -0.076169 0.221421 19.748400 -40.985400 0.000008 0.000006 -3.636560 2.720180 -62.257500 -11.754300 -0.000006 -0.000006 -0.006473 -0.075073 -19.628800
